<svg id="Layer_1" data-name="Layer 1" xmlns="http://www.w3.org/2000/svg" viewBox="0 0 446 455.1"><defs><style>.cls-1{fill:#4285f4;}.cls-2{fill:#34a853;}.cls-3{fill:#fbbc05;}.cls-4{fill:#eb4335;}</style></defs><path class="cls-1" d="M473,255.06c0-18.71-1.52-32.37-4.8-46.52H254.55V293H380c-2.53,21-16.18,52.59-46.53,73.83l-.42,2.83L400.56,422l4.68.46c43-39.69,67.76-98.1,67.76-167.37" transform="translate(-27 -22.45)"/><path class="cls-2" d="M254.55,477.55c61.44,0,113-20.23,150.69-55.12l-71.81-55.62c-19.21,13.4-45,22.75-78.88,22.75-60.17,0-111.25-39.69-129.45-94.56l-2.67.23L52.19,349.59l-.92,2.55c37.42,74.34,114.28,125.41,203.28,125.41" transform="translate(-27 -22.45)"/><path class="cls-3" d="M125.1,295a139.88,139.88,0,0,1-7.59-45,146.85,146.85,0,0,1,7.34-45l-.13-3L53.6,146.75l-2.33,1.1a227.08,227.08,0,0,0,0,204.29L125.1,295" transform="translate(-27 -22.45)"/><path class="cls-4" d="M254.55,110.43c42.73,0,71.55,18.46,88,33.89l64.22-62.71C367.32,45,316,22.45,254.55,22.45A227.39,227.39,0,0,0,51.27,147.85L124.85,205c18.45-54.87,69.53-94.57,129.7-94.57" transform="translate(-27 -22.45)"/></svg>